<?xml version="1.0" standalone="no"?><!DOCTYPE svg PUBLIC "-//W3C//DTD SVG 1.1//EN" "http://www.w3.org/Graphics/SVG/1.1/DTD/svg11.dtd"><svg t="1670591715777" class="icon" viewBox="0 0 1024 1024" version="1.1" xmlns="http://www.w3.org/2000/svg" p-id="2676" xmlns:xlink="http://www.w3.org/1999/xlink" width="200" height="200"><path d="M212.992 526.336 212.992 526.336 212.992 526.336 215.04 526.336 212.992 526.336Z" p-id="2677" fill="#d4237a"></path><path d="M817.152 202.752 817.152 202.752C737.28 122.88 628.736 75.776 509.952 75.776c-118.784 0-229.376 49.152-307.2 126.976l0 0c-77.824 77.824-126.976 186.368-126.976 307.2 0 118.784 49.152 229.376 126.976 307.2 77.824 79.872 188.416 126.976 307.2 126.976 120.832 0 229.376-49.152 307.2-126.976 79.872-77.824 126.976-186.368 126.976-307.2C946.176 389.12 897.024 280.576 817.152 202.752zM770.048 770.048c-65.536 65.536-157.696 108.544-260.096 108.544-102.4 0-194.56-40.96-260.096-108.544C184.32 704.512 141.312 612.352 141.312 509.952s40.96-194.56 108.544-260.096C317.44 184.32 409.6 141.312 509.952 141.312c100.352 0 192.512 40.96 258.048 106.496l2.048 2.048c65.536 65.536 108.544 157.696 108.544 260.096S837.632 704.512 770.048 770.048z" p-id="2678" fill="#d4237a"></path><path d="M700.416 477.184 700.416 477.184c-49.152-40.96-122.88-63.488-219.136-65.536l0-96.256 0 0c0-6.144-2.048-10.24-6.144-14.336-8.192-8.192-20.48-8.192-28.672 0l-196.608 194.56c-8.192 8.192-8.192 20.48 0 28.672l194.56 194.56 0 0c4.096 4.096 8.192 6.144 14.336 6.144 10.24 0 20.48-8.192 20.48-20.48l0-94.208c61.44-2.048 108.544 4.096 149.504 14.336 43.008 12.288 77.824 32.768 112.64 63.488 2.048 4.096 8.192 4.096 12.288 6.144 12.288 0 20.48-8.192 20.48-18.432C778.24 587.776 753.664 520.192 700.416 477.184L700.416 477.184z" p-id="2679" fill="#d4237a"></path></svg>